<svg fill="none" height="164" viewBox="0 0 382 164" width="382" xmlns="http://www.w3.org/2000/svg"><g fill="#fff"><path d="m212.1 91h3.4l-28.9-34.8-29 34.8h3.4l25.6-30.5z"/><path d="m0 161h381.3v2.7h-381.3z"/><path d="m231.2 88.4-17.6-21.2c7.2-7.1 11.7-17 11.7-27.9 0-21.7-17.6-39.3-39.3-39.3s-39.3 17.6-39.3 39.3c0 11.2 4.7 21.3 12.3 28.5l-17.1 20.6h-141.9v2.7h143.2l43.3-52.1 43.4 52.1h151.4v-2.7zm-70.4-22.7c-7-6.7-11.3-16-11.3-26.4 0-20.2 16.4-36.59999 36.6-36.59999s36.6 16.39999 36.6 36.59999c0 10.1-4.1 19.2-10.7 25.8l-25.3-30.5z"/><path d="m.0999756 115.7v-2.7h13.6000244c4.6 0 7.4 2.3 7.4 6.9 0 3-1.2 5-3.3 6 2.5.9 3.9 3.1 3.9 6.4 0 4.6-2.7 7-7.4 7h-14.100018v-2.7h3.599988v-20.9zm6.8000044 9.1h6.40002c3.2 0 4.7-1.6 4.7-4.5s-1.6-4.5-4.7-4.5h-6.40002zm6.90002 11.8c3.1 0 4.7-1.6 4.7-4.5 0-3-1.5-4.6-4.7-4.6h-7.00003v9.1z"/><path d="m56.1 115.7h-4.5v20.9h10.7v-5.6h3.1v8.3h-20.5v-2.7h3.6v-20.9h-3.6v-2.7h11.2z"/><path d="m86.7 136.6h3.3l9-23.6h3.8l9 23.6h3.1v2.7h-9.8v-2.7h3.4l-2.1-5.4h-11.2l-2.1 5.4h3.6v2.7h-9.9v-2.7zm9.3-8.1h9.5l-4.7-12.4z"/><path d="m154.2 121.3c0-3.8-2.6-6-6.7-6-4.4 0-7 2.4-7 6.7v8.2c0 4.3 2.6 6.7 7 6.7 4.2 0 6.8-2.2 6.8-6v-.1h3.1v.1c0 5.6-3.8 8.7-9.9 8.7-6.2 0-10.1-3.4-10.1-9.4v-8.1c0-5.9 3.7-9.4 9.8-9.4 3.3 0 5.9.9 7.4 2.9l.4-2.6h2.4v8.5h-3.1v-.2z"/><path d="m195.8 113h10.6v2.7h-3.1l-9.3 8.7 9.8 12.2h3.2v2.7h-10.6v-2.7h3.3l-8.1-10.2-3.9 3.7v6.5h3.6v2.7h-10.3v-2.7h3.6v-20.9h-3.6v-2.7h10.3v2.7h-3.6v10.9l11.5-10.9h-3.4z"/><path d="m236.9 136.6h3.6v2.7h-10.3v-2.7h3.6v-20.9h-3.6v-2.7h6.6l8.3 15.6 8.3-15.6h6.6v2.7h-3.6v20.9h3.6v2.7h-10.2v-2.7h3.6v-17.5l-8.2 15.4-8.3-15.4z"/><path d="m328.6 115.7h-4.5v20.9h10.7v-5.6h3.1v8.3h-20.6v-2.7h3.6v-20.9h-3.6v-2.7h11.2v2.7z"/><path d="m364.3 115.7h-3.6v-2.7h20.6v7.5h-3.1v-4.8h-10.7v9.1h9.7v2.7h-9.7v9.1h10.7v-4.8h3.1v7.5h-20.6v-2.7h3.6z"/><path d="m294 140h-11v-3h4v-21h-4v-3h11v3h-4v21h4z"/></g></svg>